<svg width="560" height="150" viewBox="0 0 560 150" fill="none" xmlns="http://www.w3.org/2000/svg">
  <defs>
    <linearGradient id="shell-fill" x1="78" y1="34" x2="414" y2="118" gradientUnits="userSpaceOnUse">
      <stop offset="0" stop-color="#FFD1A1"/>
      <stop offset="0.42" stop-color="#F08A4B"/>
      <stop offset="1" stop-color="#BC4A27"/>
    </linearGradient>
    <linearGradient id="shell-stroke" x1="120" y1="26" x2="410" y2="126" gradientUnits="userSpaceOnUse">
      <stop offset="0" stop-color="#FFE3C4"/>
      <stop offset="1" stop-color="#762A18"/>
    </linearGradient>
    <filter id="warm-shadow" x="0" y="0" width="560" height="150" filterUnits="userSpaceOnUse" color-interpolation-filters="sRGB">
      <feDropShadow dx="0" dy="10" stdDeviation="9" flood-color="#090605" flood-opacity="0.34"/>
    </filter>
  </defs>

  <g filter="url(#warm-shadow)">
    <path d="M105 40C95 28 82 25 66 24" stroke="#F3A06A" stroke-width="5" stroke-linecap="round"/>
    <path d="M119 34C113 19 101 10 84 6" stroke="#C85D32" stroke-width="4" stroke-linecap="round"/>
    <path d="M415 36C425 24 438 20 455 19" stroke="#F3A06A" stroke-width="5" stroke-linecap="round"/>
    <path d="M404 30C410 15 423 7 439 4" stroke="#C85D32" stroke-width="4" stroke-linecap="round"/>

    <text
      x="38"
      y="112"
      font-family="'Avenir Next Condensed', 'Trebuchet MS', 'Palatino Linotype', serif"
      font-size="96"
      font-weight="700"
      font-style="italic"
      letter-spacing="1.4"
      fill="url(#shell-fill)"
      stroke="url(#shell-stroke)"
      stroke-width="4"
      paint-order="stroke fill"
    >Clawdad</text>

    <path d="M34 75C24 72 14 73 7 79C15 87 26 90 39 88" fill="#D15C32"/>
    <path d="M28 61C18 51 14 40 16 27C29 32 38 42 41 58" fill="#F08A4B"/>

    <path d="M470 80C482 77 493 79 501 87C491 96 479 97 465 93" fill="#D15C32"/>
    <path d="M465 61C475 51 479 39 477 26C464 32 455 42 452 58" fill="#F08A4B"/>

    <path d="M160 122C195 130 234 133 274 131C317 129 355 121 389 107" stroke="#FFD8B6" stroke-width="3.5" stroke-linecap="round" opacity="0.28"/>
  </g>
</svg>
