<svg width="1024" height="1024" viewBox="0 0 1024 1024" fill="none" xmlns="http://www.w3.org/2000/svg">
  <!-- Claw outline traced from "Crawfish claws.jpg" by Jon Sullivan, public domain. -->
  <defs>
    <radialGradient id="icon-bg" cx="0" cy="0" r="1" gradientUnits="userSpaceOnUse" gradientTransform="translate(512 520) rotate(90) scale(610)">
      <stop offset="0" stop-color="#21040B"/>
      <stop offset="0.58" stop-color="#050204"/>
      <stop offset="1" stop-color="#000000"/>
    </radialGradient>
    <radialGradient id="neon-halo" cx="0" cy="0" r="1" gradientUnits="userSpaceOnUse" gradientTransform="translate(512 520) rotate(90) scale(430)">
      <stop offset="0" stop-color="#FF2E6E" stop-opacity="0.7"/>
      <stop offset="0.5" stop-color="#FF174D" stop-opacity="0.2"/>
      <stop offset="1" stop-color="#FF174D" stop-opacity="0"/>
    </radialGradient>
    <linearGradient id="shell-hot" x1="345" y1="860" x2="705" y2="132" gradientUnits="userSpaceOnUse">
      <stop offset="0" stop-color="#5C0614"/>
      <stop offset="0.16" stop-color="#A60827"/>
      <stop offset="0.45" stop-color="#FF245B"/>
      <stop offset="0.73" stop-color="#FF7893"/>
      <stop offset="1" stop-color="#FF143D"/>
    </linearGradient>
    <linearGradient id="shell-deep" x1="304" y1="844" x2="628" y2="458" gradientUnits="userSpaceOnUse">
      <stop offset="0" stop-color="#34010B"/>
      <stop offset="0.42" stop-color="#8E071F"/>
      <stop offset="1" stop-color="#FF2B5F"/>
    </linearGradient>
    <linearGradient id="edge-glow" x1="328" y1="862" x2="704" y2="126" gradientUnits="userSpaceOnUse">
      <stop offset="0" stop-color="#FF1B52"/>
      <stop offset="0.48" stop-color="#FF7A9A"/>
      <stop offset="1" stop-color="#FF1748"/>
    </linearGradient>
    <radialGradient id="speckle-fill" cx="0" cy="0" r="1" gradientUnits="userSpaceOnUse" gradientTransform="translate(452 608) rotate(90) scale(236 188)">
      <stop offset="0" stop-color="#FFD0D8" stop-opacity="0.34"/>
      <stop offset="1" stop-color="#FFD0D8" stop-opacity="0"/>
    </radialGradient>
    <filter id="pink-neon" x="-30%" y="-30%" width="160%" height="160%" color-interpolation-filters="sRGB">
      <feDropShadow dx="0" dy="0" stdDeviation="18" flood-color="#FF174F" flood-opacity="0.95"/>
      <feDropShadow dx="0" dy="0" stdDeviation="46" flood-color="#FF1A58" flood-opacity="0.48"/>
      <feDropShadow dx="0" dy="20" stdDeviation="22" flood-color="#110004" flood-opacity="0.8"/>
    </filter>
  </defs>

  <g>
    <rect width="1024" height="1024" fill="url(#icon-bg)"/>
    <circle cx="512" cy="520" r="430" fill="url(#neon-halo)"/>
    <circle cx="310" cy="818" r="176" fill="#FF174F" opacity="0.1"/>

    <g transform="rotate(74 512 512) translate(4 -18)">
    <g filter="url(#pink-neon)">
      <path d="M329 828C292 789 274 733 284 668C295 596 337 533 403 497C447 473 503 470 549 496C596 522 630 572 640 632C655 721 593 799 495 832C428 855 365 854 329 828Z" fill="url(#shell-deep)"/>
      <path d="M329 828C292 789 274 733 284 668C295 596 337 533 403 497C447 473 503 470 549 496C596 522 630 572 640 632C655 721 593 799 495 832C428 855 365 854 329 828Z" stroke="url(#edge-glow)" stroke-width="20" stroke-linejoin="round"/>
      <path d="M329 828C292 789 274 733 284 668C295 596 337 533 403 497C447 473 503 470 549 496C596 522 630 572 640 632C655 721 593 799 495 832C428 855 365 854 329 828Z" fill="url(#speckle-fill)"/>

      <path d="M486 497C459 421 435 336 425 245C417 170 424 120 448 108C470 98 492 124 501 179C521 292 553 396 596 491C556 484 519 486 486 497Z" fill="url(#shell-hot)"/>
      <path d="M486 497C459 421 435 336 425 245C417 170 424 120 448 108C470 98 492 124 501 179C521 292 553 396 596 491C556 484 519 486 486 497Z" stroke="url(#edge-glow)" stroke-width="20" stroke-linejoin="round"/>

      <path d="M545 499C581 401 629 312 690 232C733 176 770 154 790 171C810 188 792 229 745 294C687 374 637 451 597 525C582 511 565 503 545 499Z" fill="url(#shell-hot)"/>
      <path d="M545 499C581 401 629 312 690 232C733 176 770 154 790 171C810 188 792 229 745 294C687 374 637 451 597 525C582 511 565 503 545 499Z" stroke="url(#edge-glow)" stroke-width="20" stroke-linejoin="round"/>

      <path d="M331 786C374 817 435 824 500 804C548 789 584 762 608 724" stroke="#FF9CAF" stroke-width="22" stroke-linecap="round" opacity="0.38"/>
      <path d="M453 165C458 284 486 394 538 494" stroke="#FFB0BD" stroke-width="22" stroke-linecap="round" opacity="0.42"/>
      <path d="M755 199C679 305 622 413 584 523" stroke="#FFB0BD" stroke-width="22" stroke-linecap="round" opacity="0.4"/>
      <path d="M363 553C329 591 307 638 300 694" stroke="#260007" stroke-width="19" stroke-linecap="round" opacity="0.42"/>
      <path d="M442 518C398 564 377 614 379 669" stroke="#650015" stroke-width="18" stroke-linecap="round" opacity="0.48"/>
      <path d="M563 543C588 588 599 635 596 684" stroke="#620014" stroke-width="18" stroke-linecap="round" opacity="0.48"/>
    </g>

    <g opacity="0.9">
      <path d="M358 616C392 569 439 539 499 528" stroke="#FFCBD3" stroke-width="7" stroke-linecap="round" opacity="0.32"/>
      <path d="M389 749C437 771 490 772 548 750" stroke="#FFCBD3" stroke-width="7" stroke-linecap="round" opacity="0.25"/>
      <path d="M459 212C468 313 493 401 535 477" stroke="#FFD7DE" stroke-width="7" stroke-linecap="round" opacity="0.34"/>
      <path d="M725 236C665 323 619 414 586 508" stroke="#FFD7DE" stroke-width="7" stroke-linecap="round" opacity="0.33"/>
      <circle cx="411" cy="571" r="5" fill="#FFD7DE" opacity="0.42"/>
      <circle cx="452" cy="551" r="4" fill="#FFD7DE" opacity="0.36"/>
      <circle cx="427" cy="632" r="4" fill="#FFD7DE" opacity="0.3"/>
      <circle cx="486" cy="614" r="5" fill="#FFD7DE" opacity="0.32"/>
      <circle cx="464" cy="693" r="4" fill="#FFD7DE" opacity="0.28"/>
      <circle cx="526" cy="675" r="4" fill="#FFD7DE" opacity="0.26"/>
    </g>

    <path d="M516 503C533 564 534 626 519 689" stroke="#0B0002" stroke-width="30" stroke-linecap="round" opacity="0.78"/>
    <path d="M522 506C538 566 538 625 523 684" stroke="#FF6C8D" stroke-width="9" stroke-linecap="round" opacity="0.54"/>
    </g>
  </g>
</svg>
